<?xml version="1.0" standalone="no"?>
<!DOCTYPE svg PUBLIC "-//W3C//DTD SVG 20010904//EN"
 "http://www.w3.org/TR/2001/REC-SVG-20010904/DTD/svg10.dtd">
<svg version="1.0" xmlns="http://www.w3.org/2000/svg"
 width="1024.000000pt" height="1024.000000pt" viewBox="0 0 1024.000000 1024.000000"
 preserveAspectRatio="xMidYMid meet">

<g transform="translate(0.000000,1024.000000) scale(0.100000,-0.100000)"
fill="#000000" stroke="none">
<path d="M530 6950 l0 -2760 1828 -2 1827 -3 3 -892 2 -893 -1827 -2 -1828 -3
-3 -933 -2 -932 2770 0 2770 0 0 1820 0 1820 885 0 885 0 2 -1818 3 -1817 933
-3 932 -2 0 2770 0 2770 -1820 0 -1820 0 0 885 0 885 1818 2 1817 3 3 933 2
932 -2760 0 -2760 0 0 -1820 0 -1820 -887 2 -888 3 -3 1818 -2 1817 -940 0
-940 0 0 -2760z"/>
</g>
</svg>
